<svg width="325" height="290" viewBox="0 0 325 290" fill="none" xmlns="http://www.w3.org/2000/svg">
<rect y="42.2222" width="325" height="247.778" rx="25" fill="#F26E11"/>
<g filter="url(#filter0_d_615_2)">
<path d="M256.864 129.691C256.864 129.691 277.592 124.698 286.526 115.556C286.526 115.556 293.013 219.743 286.526 232.322C276.36 252.039 253.846 245.171 231.885 249.485C222.463 251.336 210.925 252.42 200.141 253.051C181.887 254.118 165.795 253.889 165.795 253.889C165.795 253.889 146.976 254.35 126.245 253.149C115.186 252.508 103.583 251.394 94.0038 249.485C72.0728 245.114 49.5727 252.021 39.4112 232.322C32.9225 219.744 39.4112 115.556 39.4112 115.556C48.4469 124.861 69.6113 129.691 69.6113 129.691C69.6113 129.691 78.2609 125.48 83.5499 122.34C87.7367 119.855 94.0038 115.556 94.0038 115.556C94.0038 115.556 98.665 120.08 102.135 122.34C110.361 127.701 126.245 129.691 126.245 129.691C126.245 129.691 148.102 129.923 158.51 122.34C161.656 120.048 165.795 115.556 165.795 115.556C165.795 115.556 169.92 120.066 173.081 122.34C181.941 128.716 189.188 130.048 200.141 129.691C209.925 129.371 215.996 127.797 224.079 122.34C227.432 120.077 231.885 115.556 231.885 115.556L256.864 129.691Z" fill="black" fill-opacity="0.8" shape-rendering="crispEdges"/>
<path d="M256.864 129.691C256.864 129.691 277.592 124.698 286.526 115.556C286.526 115.556 293.013 219.743 286.526 232.322C276.36 252.039 253.846 245.171 231.885 249.485C222.463 251.336 210.925 252.42 200.141 253.051C181.887 254.118 165.795 253.889 165.795 253.889C165.795 253.889 146.976 254.35 126.245 253.149C115.186 252.508 103.583 251.394 94.0038 249.485C72.0728 245.114 49.5727 252.021 39.4112 232.322C32.9225 219.744 39.4112 115.556 39.4112 115.556C48.4469 124.861 69.6113 129.691 69.6113 129.691C69.6113 129.691 78.2609 125.48 83.5499 122.34C87.7367 119.855 94.0038 115.556 94.0038 115.556C94.0038 115.556 98.665 120.08 102.135 122.34C110.361 127.701 126.245 129.691 126.245 129.691C126.245 129.691 148.102 129.923 158.51 122.34C161.656 120.048 165.795 115.556 165.795 115.556C165.795 115.556 169.92 120.066 173.081 122.34C181.941 128.716 189.188 130.048 200.141 129.691C209.925 129.371 215.996 127.797 224.079 122.34C227.432 120.077 231.885 115.556 231.885 115.556L256.864 129.691Z" stroke="black" stroke-width="6" shape-rendering="crispEdges"/>
</g>
<path d="M201.68 222.156C215.335 226.898 225.807 234.704 227.029 246.669L165.931 249.823C155.071 250.384 148.96 250.201 142.504 250.009C142.162 249.998 141.819 249.988 141.474 249.978C134.775 249.781 127.456 249.615 114.076 250.276C112.784 245.753 113.349 241.63 115.223 237.91C117.262 233.86 120.896 230.211 125.564 227.101C134.911 220.872 148.041 217.049 159.315 216.467C170.668 215.881 187.559 217.253 201.68 222.156Z" fill="#E80000" stroke="black" stroke-width="3"/>
<path d="M166.393 221.11C165.434 220.105 163.965 218.375 162.883 217.517C163.856 216.83 163.855 217.101 164.673 216.084C165.15 215.491 164.449 216.518 166.472 214.813C166.593 215.924 168.129 217.328 168.567 218.297C168.842 218.906 169.36 219.647 169.628 220.27C169.832 220.744 170.561 222.466 170.734 222.958C171.635 225.518 172.947 228.336 173.586 231.065C173.657 232.216 171.687 227.618 171.477 227.35C171.013 226.757 170.372 225.822 169.72 225.275C168.434 223.717 167.967 222.758 166.393 221.11Z" fill="black" stroke="black" stroke-linecap="round" stroke-linejoin="round"/>
<path d="M151.499 55.3411C151.499 85.9051 124.104 110.682 98.3408 110.682C72.5772 110.682 39.2157 85.9051 39.2157 55.3411C6.66971 42.471 72.5772 0 98.3408 0C124.104 0 151.499 24.777 151.499 55.3411Z" fill="#F26E11"/>
<g filter="url(#filter1_d_615_2)">
<path d="M126.441 63.8889C126.441 63.8889 106.747 45.8945 90.3818 46.6667C74.3633 47.4225 55.2594 63.8889 55.2594 63.8889" stroke="black" stroke-width="11"/>
</g>
<path d="M173.196 55.3411C173.196 85.9051 200.591 110.682 226.355 110.682C252.12 110.682 285.482 85.9051 285.482 55.3411C318.028 42.471 252.12 0 226.355 0C200.591 0 173.196 24.777 173.196 55.3411Z" fill="#F26E11"/>
<g filter="url(#filter2_d_615_2)">
<path d="M268.804 66.1111C268.804 66.1111 249.11 48.1167 232.745 48.8889C216.727 49.6448 197.623 66.1111 197.623 66.1111" stroke="black" stroke-width="11"/>
</g>
<defs>
<filter id="filter0_d_615_2" x="29.5273" y="108.6" width="266.882" height="156.376" filterUnits="userSpaceOnUse" color-interpolation-filters="sRGB">
<feFlood flood-opacity="0" result="BackgroundImageFix"/>
<feColorMatrix in="SourceAlpha" type="matrix" values="0 0 0 0 0 0 0 0 0 0 0 0 0 0 0 0 0 0 127 0" result="hardAlpha"/>
<feOffset dy="4"/>
<feGaussianBlur stdDeviation="2"/>
<feComposite in2="hardAlpha" operator="out"/>
<feColorMatrix type="matrix" values="0 0 0 0 0 0 0 0 0 0 0 0 0 0 0 0 0 0 0.25 0"/>
<feBlend mode="normal" in2="BackgroundImageFix" result="effect1_dropShadow_615_2"/>
<feBlend mode="normal" in="SourceGraphic" in2="effect1_dropShadow_615_2" result="shape"/>
</filter>
<filter id="filter1_d_615_2" x="45.6704" y="38.1426" width="90.4785" height="38.9149" filterUnits="userSpaceOnUse" color-interpolation-filters="sRGB">
<feFlood flood-opacity="0" result="BackgroundImageFix"/>
<feColorMatrix in="SourceAlpha" type="matrix" values="0 0 0 0 0 0 0 0 0 0 0 0 0 0 0 0 0 0 127 0" result="hardAlpha"/>
<feOffset dy="3"/>
<feGaussianBlur stdDeviation="3"/>
<feColorMatrix type="matrix" values="0 0 0 0 0 0 0 0 0 0 0 0 0 0 0 0 0 0 0.25 0"/>
<feBlend mode="normal" in2="BackgroundImageFix" result="effect1_dropShadow_615_2"/>
<feBlend mode="normal" in="SourceGraphic" in2="effect1_dropShadow_615_2" result="shape"/>
</filter>
<filter id="filter2_d_615_2" x="188.034" y="40.3649" width="90.4785" height="38.9149" filterUnits="userSpaceOnUse" color-interpolation-filters="sRGB">
<feFlood flood-opacity="0" result="BackgroundImageFix"/>
<feColorMatrix in="SourceAlpha" type="matrix" values="0 0 0 0 0 0 0 0 0 0 0 0 0 0 0 0 0 0 127 0" result="hardAlpha"/>
<feOffset dy="3"/>
<feGaussianBlur stdDeviation="3"/>
<feColorMatrix type="matrix" values="0 0 0 0 0 0 0 0 0 0 0 0 0 0 0 0 0 0 0.25 0"/>
<feBlend mode="normal" in2="BackgroundImageFix" result="effect1_dropShadow_615_2"/>
<feBlend mode="normal" in="SourceGraphic" in2="effect1_dropShadow_615_2" result="shape"/>
</filter>
</defs>
</svg>
